<svg width="270" height="556" viewBox="0 0 270 556" fill="none" xmlns="http://www.w3.org/2000/svg">
<path d="M0 34.1974C0 15.3107 15.374 0 34.3389 0H235.115C254.08 0 269.454 15.3107 269.454 34.1974V521.803C269.454 540.689 254.08 556 235.115 556H34.3389C15.374 556 0 540.689 0 521.803V34.1974ZM6.85258 104.04C6.85258 122.927 22.2266 138.238 41.1915 138.238H107.241C126.206 138.238 141.58 122.927 141.58 104.04V40.2961C141.58 21.4094 126.206 6.09872 107.241 6.09872H41.1915C22.2266 6.09872 6.85258 21.4094 6.85258 40.2961V104.04Z" fill="white"/>
</svg>
