<?xml version="1.0" encoding="UTF-8" standalone="no" ?>
<!DOCTYPE svg PUBLIC "-//W3C//DTD SVG 1.1//EN" "http://www.w3.org/Graphics/SVG/1.1/DTD/svg11.dtd">
<svg xmlns="http://www.w3.org/2000/svg" xmlns:xlink="http://www.w3.org/1999/xlink" version="1.1" width="821.0722900000001" height="1701.2369200000003" viewBox="236.90878676956027 569.1523950865335 821.0722900000001 1701.2369200000003" xml:space="preserve">
<desc>Created with Fabric.js 5.3.0</desc>
<defs>
</defs>
<g transform="matrix(1 0 0 1 647.4449317696 1419.7708550865)" id="ALI6nXU2MAGdC1Ht7icpi"  >
<path style="stroke: rgb(91,226,230); stroke-width: 0; stroke-dasharray: none; stroke-linecap: butt; stroke-dashoffset: 0; stroke-linejoin: miter; stroke-miterlimit: 4; fill: rgb(255,255,255); fill-rule: nonzero; opacity: 1;"  transform=" translate(-410.536145, -850.61846)" d="M 0 104.63639 C 0 46.84731000000001 46.84731 0 104.63639 0 L 716.4359000000001 0 C 774.2249800000001 0 821.0722900000001 46.84731 821.0722900000001 104.63639 L 821.0722900000001 1596.6005300000002 C 821.0722900000001 1654.3896100000002 774.2249800000001 1701.2369200000003 716.4359000000001 1701.2369200000003 L 104.63639 1701.2369200000003 C 46.84731000000001 1701.2369200000003 0 1654.3896100000002 0 1596.6005300000002 z M 20.88098 318.34024 C 20.88098 376.12932 67.72829 422.97663 125.51737 422.97663 L 326.78073 422.97663 C 384.56981 422.97663 431.41712 376.12932 431.41712 318.34024 L 431.41712 123.29712 C 431.41712 65.50804000000001 384.56981 18.66073 326.78073 18.66073 L 125.51737 18.66073 C 67.72829 18.66073 20.880979999999994 65.50804 20.880979999999994 123.29712 z" stroke-linecap="round" />
</g>
</svg>