<svg width="500" height="900" viewBox="0 0 241 498" fill="none" xmlns="http://www.w3.org/2000/svg">
<path d="M0.236145 30.8832C0.236145 13.997 13.9272 0.308105 30.8159 0.308105H209.613C226.502 0.308105 240.193 13.997 240.193 30.8832V466.84C240.193 483.726 226.502 497.415 209.613 497.415H30.8159C13.9272 497.415 0.236145 483.726 0.236145 466.84V30.8832ZM6.33857 93.3281C6.33857 110.214 20.0296 123.903 36.9184 123.903H95.7372C112.626 123.903 126.317 110.214 126.317 93.3281V36.3359C126.317 19.4498 112.626 5.76083 95.7372 5.76083H36.9184C20.0296 5.76083 6.33857 19.4498 6.33857 36.3359V93.3281Z" fill="white"/>
</svg>
