<?xml version="1.0" encoding="UTF-8" standalone="no" ?>
<!DOCTYPE svg PUBLIC "-//W3C//DTD SVG 1.1//EN" "http://www.w3.org/Graphics/SVG/1.1/DTD/svg11.dtd">
<svg xmlns="http://www.w3.org/2000/svg" xmlns:xlink="http://www.w3.org/1999/xlink" version="1.1" width="413.5" height="859" viewBox="231.50000385000067 540.8323667636369 827 1718" xml:space="preserve">
<desc>Created with Fabric.js 5.3.0</desc>
<defs>
<mask id="phone-case">
<rect x="10" y="10" width="100" height="200" fill="white"/>
</mask>
</defs>
<g transform="matrix(0.9062731537 0 0 0.9120381271 645.00000385 1399.8323667636)" id="CgKdDBhKIWObllzV0EhE8"  >
<path style="stroke: rgb(145,20,6); stroke-width: 0; stroke-dasharray: none; stroke-linecap: butt; stroke-dashoffset: 0; stroke-linejoin: miter; stroke-miterlimit: 4; fill: rgb(255,255,255); fill-rule: nonzero; opacity: 1;"  transform=" translate(-456.264205, -941.84659)" d="M 0 147.72877 C 0 66.14041999999999 66.14042 0 147.72877 0 L 764.79964 0 C 846.38799 0 912.5284099999999 66.14042 912.5284099999999 147.72877 L 912.5284099999999 1735.96441 C 912.5284099999999 1817.55276 846.38799 1883.69318 764.79964 1883.69318 L 147.72876999999994 1883.69318 C 66.14041999999993 1883.69318 -5.684341886080802e-14 1817.55276 -5.684341886080802e-14 1735.96441 z M 40.31249 359.23148 C 40.31249 423.95318 92.77978999999999 476.42048 157.50149 476.42048 L 324.686 476.42048 C 389.4077 476.42048 441.875 423.95318 441.875 359.23148000000003 L 441.875 161.16629000000003 C 441.875 96.44459000000003 389.4077 43.97729000000004 324.68600000000004 43.97729000000004 L 157.50149000000005 43.97729000000004 C 92.77979000000005 43.97729000000004 40.312490000000054 96.44459000000003 40.312490000000054 161.16629000000003 z" stroke-linecap="round" />
</g>
</svg>
